<svg xmlns="http://www.w3.org/2000/svg" width="140" height="140"><path class="logo__bg" d="M140 70c0 14.84-4.62 28.6-12.5 39.92v17.58h-17.58c-11.32 7.88-25.08 12.5-39.92 12.5-38.66 0-70-31.34-70-70s31.34-70 70-70 70 31.34 70 70z"/><path class="logo__text" d="M70 72c-6.63 0-12 5.37-12 12s5.37 12 12 12 12-5.37 12-12-5.37-12-12-12zm0 16c-2.21 0-4-1.79-4-4s1.79-4 4-4 4 1.79 4 4-1.79 4-4 4z"/><path class="logo__text" d="M104 50v6c0 6.62-5.37 12-12 12s-12-5.38-12-12v-8h8v8c0 2.21 1.79 4 4 4s4-1.79 4-4v-6c0-1.1.9-2 2-2h4c1.1 0 2 .9 2 2z"/><path class="logo__text" d="M120 50v4c0 1.1-.9 2-2 2-2.21 0-4 1.79-4 4v8h-8v-8c0-6.63 5.37-12 12-12 1.1 0 2 .9 2 2z"/><path class="logo__text" d="M62 50v4c0 1.1-.9 2-2 2-2.21 0-4 1.79-4 4v8h-8v-8c0-6.63 5.37-12 12-12 1.1 0 2 .9 2 2z"/><path class="logo__text" d="M36 64h8v2c0 1.1-.9 2-2 2h-4c-1.1 0-2-.9-2-2v-2z"/><path class="logo__text" d="M78 46v8c0 1.1-.9 2-2 2-2.21 0-4 1.79-4 4v8h-8v-8c0-3.08 1.15-5.88 3.05-8h-1.05c-1.1 0-2-.9-2-2v-6h12c1.1 0 2 .9 2 2z"/><path class="logo__text" d="M44 60h-8c0-2.21-1.79-4-4-4s-4 1.79-4 4v8h-8v-8c0-6.63 5.37-12 12-12s12 5.37 12 12z"/><path class="logo__text" d="M100 74v8c0 1.11-.9 2-2 2-2.21 0-4 1.79-4 4v8h-8v-8c0-3.08 1.15-5.88 3.05-8h-1.05c-1.1 0-2-.9-2-2v-6h12c1.1 0 2 .9 2 2z"/><path class="logo__text" d="M56 76c0 3.08-1.16 5.89-3.05 8.01 1.9 2.12 3.05 4.92 3.05 7.99v2c0 1.1-.9 2-2 2h-4c-1.1 0-2-.9-2-2v-2c0-2.21-1.79-4-4-4h-2c-1.1 0-2-.9-2-2v-4c0-1.1.9-2 2-2h2c2.21 0 4-1.79 4-4v-4h8v4z"/></svg>
